<svg width="18" height="18" viewBox="0 0 18 18" fill="none" xmlns="http://www.w3.org/2000/svg">
<path d="M6.54984 16.1989C6.28174 16.1994 6.02192 16.1159 5.81549 15.9629C5.6993 15.8767 5.60326 15.7709 5.53286 15.6515C5.46246 15.5321 5.41909 15.4014 5.40524 15.267C5.39138 15.1326 5.40731 14.9971 5.45211 14.8681C5.49691 14.7392 5.5697 14.6195 5.66632 14.5158L10.8068 9.01486L5.84991 3.50365C5.7546 3.39867 5.68342 3.27788 5.64047 3.14822C5.59752 3.01856 5.58364 2.88258 5.59964 2.74811C5.61563 2.61363 5.66118 2.48331 5.73367 2.36464C5.80615 2.24596 5.90415 2.14127 6.02202 2.05657C6.14074 1.96314 6.27977 1.89267 6.43039 1.84958C6.581 1.80648 6.73995 1.7917 6.89725 1.80616C7.05456 1.82061 7.20683 1.86399 7.3445 1.93358C7.48217 2.00316 7.60227 2.09745 7.69727 2.21052L13.2394 8.36829C13.4081 8.55193 13.5004 8.78227 13.5004 9.01999C13.5004 9.2577 13.4081 9.48805 13.2394 9.67169L7.50221 15.8295C7.3871 15.9537 7.24088 16.0518 7.07541 16.116C6.90994 16.1802 6.72988 16.2086 6.54984 16.1989Z" fill="white"/>
</svg>
