<svg width="70" height="70" viewBox="0 0 70 70" fill="none" xmlns="http://www.w3.org/2000/svg">
<g clip-path="url(#clip0_816_3793)">
<circle cx="35" cy="35" r="35" fill="#388D46"/>
<g clip-path="url(#clip1_816_3793)">
<mask id="mask0_816_3793" style="mask-type:luminance" maskUnits="userSpaceOnUse" x="-85" y="-111" width="314" height="398">
<path d="M228.628 -110.15H-84.7949V286.252H228.628V-110.15Z" fill="white"/>
</mask>
<g mask="url(#mask0_816_3793)">
<path fill-rule="evenodd" clip-rule="evenodd" d="M38.8468 26.3789H41.2276L45.1327 41.6306H43.26L42.2293 37.4453H37.5838L36.5095 41.6306H34.6514L38.8468 26.3789ZM37.9758 35.913H41.8663L40.0227 28.5354H39.9791L37.9758 35.913Z" fill="white"/>
<path fill-rule="evenodd" clip-rule="evenodd" d="M35 49.9858C28.148 49.9858 21.6879 48.4252 16.8102 45.5876C11.7728 42.665 9 38.7208 9 34.4929C9 30.2792 11.7728 26.3208 16.8102 23.3982C21.6879 20.5606 28.148 19 35 19C41.8666 19 48.3266 20.5606 53.1898 23.3982C58.2127 26.3208 60.9855 30.2792 60.9855 34.4929C60.9855 38.7208 58.2127 42.665 53.1898 45.5876C48.3266 48.4252 41.8666 49.9858 35 49.9858ZM35 20.7876C21.6879 20.7876 10.8291 26.9309 10.8291 34.4929C10.8291 42.0549 21.6879 48.1982 35 48.1982C48.3266 48.1982 59.1563 42.0549 59.1563 34.4929C59.1563 26.9309 48.3266 20.7876 35 20.7876Z" fill="white"/>
<path fill-rule="evenodd" clip-rule="evenodd" d="M17.5938 26.3789H25.0991V28.0389H19.3939V32.8343H24.7652V34.5084H19.3939V39.9707H25.3313V41.6306H17.5938V26.3789Z" fill="white"/>
<path fill-rule="evenodd" clip-rule="evenodd" d="M46.1201 26.3789H47.9057V39.9707H53.7996V41.6306H46.1201V26.3789Z" fill="white"/>
<path fill-rule="evenodd" clip-rule="evenodd" d="M59.2145 48.5107L58.7499 47.8013C58.6628 47.6594 58.5757 47.5317 58.5176 47.475C58.8806 47.4466 59.1128 47.2054 59.1128 46.8365C59.1128 46.5102 58.8951 46.2832 58.3434 46.2832H57.6611V48.5107H58.0531V47.5175H58.0821L58.7209 48.5107H59.2145ZM58.7064 46.8933C58.7064 47.0635 58.5902 47.2622 58.2128 47.2622H58.0531V46.5953H58.3144C58.6047 46.5953 58.7064 46.6805 58.7064 46.8933Z" fill="white"/>
<path fill-rule="evenodd" clip-rule="evenodd" d="M58.3436 45.7576C57.4146 45.7576 56.6597 46.4953 56.6597 47.4033C56.6597 48.3113 57.4146 49.0633 58.3436 49.0633C59.2873 49.0633 60.0421 48.3113 60.0421 47.4033C60.0421 46.4953 59.2873 45.7576 58.3436 45.7576ZM58.3436 49.4321C57.2113 49.4321 56.2822 48.51 56.2822 47.4033C56.2822 46.2967 57.2113 45.3887 58.3436 45.3887C59.505 45.3887 60.4341 46.2967 60.4341 47.4033C60.4341 48.51 59.505 49.4321 58.3436 49.4321Z" fill="white"/>
<path fill-rule="evenodd" clip-rule="evenodd" d="M26.9863 26.3789H30.6882C31.9221 26.3789 35.1739 26.3789 35.1739 30.7629C35.1739 33.6004 33.4464 35.1894 30.993 35.1894H28.7864V41.6306H26.9863V26.3789ZM28.7864 33.643H30.9059C32.2125 33.643 33.3012 32.7066 33.3012 30.6778C33.3012 28.9894 32.5754 27.9112 30.7898 27.9112H28.7864V33.643Z" fill="white"/>
</g>
</g>
</g>
<defs>
<clipPath id="clip0_816_3793">
<rect width="70" height="70" rx="35" fill="white"/>
</clipPath>
<clipPath id="clip1_816_3793">
<rect width="52" height="31" fill="white" transform="translate(9 19)"/>
</clipPath>
</defs>
</svg>
