<svg width="60" height="60" viewBox="0 0 60 60" fill="none" xmlns="http://www.w3.org/2000/svg">
<g clip-path="url(#clip0_1026_398)">
<circle cx="30" cy="30" r="30" fill="#388D46"/>
<g clip-path="url(#clip1_1026_398)">
<path d="M36.175 23.8177C36.175 19.0045 30.7069 15.4593 30.4742 15.3108L29.9996 15.0078L29.525 15.3108C29.2922 15.4593 23.8242 19.0045 23.8242 23.8177C23.8242 27.9299 27.8247 31.2462 29.1174 32.2104V22.0533H30.8818V32.2104C32.1745 31.2462 36.175 27.9298 36.175 23.8177Z" fill="white"/>
<path d="M44.7409 32.4688L44.6267 31.8874L44.0454 31.7732C43.7711 31.7194 37.2886 30.4924 33.8944 33.8866C30.988 36.7929 31.4699 41.963 31.7024 43.5615C39.56 35.7068 38.8372 36.4293 38.8849 36.3818L40.1325 37.6294C40.0844 37.6775 40.8112 36.9509 32.9479 44.8112C33.4755 44.8881 34.3955 44.9927 35.4969 44.9927C37.7211 44.9927 40.6821 44.5655 42.6277 42.6198C46.0218 39.2257 44.7948 32.7432 44.7409 32.4688Z" fill="white"/>
<path d="M15.9552 31.7732L15.3738 31.8875L15.2596 32.4688C15.2057 32.7431 13.9787 39.2257 17.3729 42.6199C19.3188 44.5657 22.2795 44.9927 24.5037 44.9927C25.6095 44.9927 26.5328 44.8872 27.0592 44.8102L26.73 44.4912L19.8681 37.6294L21.1157 36.3818L27.9725 43.2386L28.2992 43.555C28.5319 41.9492 29.0086 36.789 26.1061 33.8866C22.712 30.4924 16.2294 31.7194 15.9552 31.7732Z" fill="white"/>
</g>
</g>
<defs>
<clipPath id="clip0_1026_398">
<rect width="60" height="60" fill="white"/>
</clipPath>
<clipPath id="clip1_1026_398">
<rect width="30" height="30" fill="white" transform="translate(15 15)"/>
</clipPath>
</defs>
</svg>
