<svg width="60" height="60" viewBox="0 0 60 60" fill="none" xmlns="http://www.w3.org/2000/svg">
<g clip-path="url(#clip0_1026_399)">
<circle cx="30" cy="30" r="30" fill="#388D46"/>
<g clip-path="url(#clip1_1026_399)">
<path d="M37.0048 24.305C37.0198 24.125 37.0348 23.945 37.0348 23.75C37.0348 23.555 37.0198 23.375 37.0048 23.195L38.2498 22.28C38.9998 21.725 39.2248 20.69 38.7598 19.88L37.6498 17.9C37.1848 17.06 36.1648 16.73 35.3098 17.135L33.9298 17.78C33.6448 17.585 33.3748 17.42 33.0748 17.27L32.9248 15.665C32.8348 14.72 32.0548 14 31.1098 14H28.8898C27.9448 14 27.1648 14.72 27.0748 15.665L26.9248 17.27C26.6248 17.42 26.3548 17.585 26.0698 17.78L24.6898 17.135C23.8348 16.73 22.8148 17.075 22.3498 17.9L21.2398 19.88C20.7748 20.69 20.9998 21.725 21.7498 22.28L22.9948 23.195C22.9798 23.375 22.9648 23.555 22.9648 23.75C22.9648 23.945 22.9798 24.125 22.9948 24.305L21.7498 25.22C20.9998 25.775 20.7748 26.81 21.2398 27.62L22.3498 29.6C22.8148 30.425 23.8348 30.77 24.6898 30.365L26.0698 29.72C26.3548 29.915 26.6248 30.08 26.9248 30.23L27.0748 31.835C27.1648 32.78 27.9448 33.5 28.8898 33.5H31.1098C32.0548 33.5 32.8348 32.78 32.9248 31.835L33.0748 30.23C33.3748 30.08 33.6448 29.915 33.9298 29.72L35.3098 30.365C36.1648 30.77 37.1848 30.44 37.6498 29.6L38.7598 27.62C39.2248 26.81 38.9998 25.775 38.2498 25.22L37.0048 24.305ZM33.7498 23.75C33.7498 25.82 32.0698 27.5 29.9998 27.5C27.9298 27.5 26.2498 25.82 26.2498 23.75C26.2498 21.68 27.9298 20 29.9998 20C32.0698 20 33.7498 21.68 33.7498 23.75Z" fill="white"/>
<path d="M43.5 35H16.5C14.019 35 12 37.019 12 39.5C12 41.981 14.019 44 16.5 44H43.5C45.981 44 48 41.981 48 39.5C48 37.019 45.981 35 43.5 35ZM18 41C17.1735 41 16.5 40.3265 16.5 39.5C16.5 38.6735 17.1735 38 18 38C18.8265 38 19.5 38.6735 19.5 39.5C19.5 40.3265 18.8265 41 18 41ZM25.5 41C24.6735 41 24 40.3265 24 39.5C24 38.6735 24.6735 38 25.5 38C26.3265 38 27 38.6735 27 39.5C27 40.3265 26.3265 41 25.5 41ZM34.5 41C33.6735 41 33 40.3265 33 39.5C33 38.6735 33.6735 38 34.5 38C35.3265 38 36 38.6735 36 39.5C36 40.3265 35.3265 41 34.5 41ZM42 41C41.1735 41 40.5 40.3265 40.5 39.5C40.5 38.6735 41.1735 38 42 38C42.8265 38 43.5 38.6735 43.5 39.5C43.5 40.3265 42.8265 41 42 41Z" fill="white"/>
</g>
</g>
<defs>
<clipPath id="clip0_1026_399">
<rect width="60" height="60" fill="white"/>
</clipPath>
<clipPath id="clip1_1026_399">
<rect width="36" height="30" fill="white" transform="translate(12 14)"/>
</clipPath>
</defs>
</svg>
