<svg width="60" height="60" viewBox="0 0 60 60" fill="none" xmlns="http://www.w3.org/2000/svg">
<g clip-path="url(#clip0_816_3725)">
<circle cx="30" cy="30" r="30" fill="#1B4D3E"/>
<g clip-path="url(#clip1_816_3725)">
<path d="M33.8808 35.6441L33.1958 36.3393C33.1958 36.3393 31.5679 37.9921 27.1245 33.481C22.6811 28.9699 24.309 27.3173 24.309 27.3173L24.7403 26.8794C25.8027 25.8008 25.9029 24.0691 24.9759 22.8049L23.0798 20.2188C21.9325 18.6541 19.7155 18.4474 18.4005 19.7824L16.0403 22.1786C15.3883 22.8405 14.9514 23.6986 15.0043 24.6505C15.1399 27.0858 16.2191 32.3255 22.2409 38.439C28.6267 44.9219 34.6185 45.1796 37.0688 44.9464C37.8438 44.8726 38.5178 44.4696 39.0609 43.9182L41.197 41.7496C42.6389 40.2858 42.2323 37.7763 40.3875 36.7523L37.5146 35.1577C36.3032 34.4854 34.8275 34.6829 33.8808 35.6441Z" fill="white"/>
<path d="M30.4803 16.8972C30.5746 16.3148 31.1254 15.9196 31.7081 16.0139C31.7441 16.0208 31.8603 16.0425 31.921 16.056C32.0427 16.0831 32.2123 16.1248 32.4237 16.1864C32.8467 16.3095 33.4375 16.5124 34.1465 16.8374C35.5663 17.4881 37.4555 18.6263 39.416 20.5863C41.3766 22.5462 42.5151 24.4349 43.1659 25.8542C43.4911 26.5631 43.694 27.1537 43.8171 27.5765C43.8787 27.788 43.9205 27.9575 43.9475 28.0791C43.9611 28.1399 43.971 28.1887 43.9779 28.2247L43.9862 28.2692C44.0803 28.8516 43.6888 29.4251 43.1061 29.5194C42.5251 29.6135 41.9778 29.2201 41.8811 28.6405C41.8782 28.6248 41.8699 28.5831 41.8612 28.5436C41.8435 28.4647 41.8132 28.3396 41.765 28.1741C41.6685 27.8431 41.5011 27.3512 41.2229 26.7448C40.6675 25.5334 39.6686 23.8607 37.9045 22.0973C36.1407 20.3338 34.4675 19.3352 33.2558 18.7799C32.6492 18.5018 32.1571 18.3344 31.8259 18.238C31.6605 18.1898 31.4524 18.1421 31.3735 18.1245C30.7935 18.0279 30.3863 17.4781 30.4803 16.8972Z" fill="white"/>
<path fill-rule="evenodd" clip-rule="evenodd" d="M30.5108 21.6576C30.6832 21.0542 31.312 20.7049 31.9154 20.8773L31.6033 21.9697C31.9154 20.8773 31.9154 20.8773 31.9154 20.8773L31.9176 20.8779L31.9199 20.8786L31.9249 20.88L31.9367 20.8835L31.9667 20.8929C31.9894 20.9002 32.0181 20.9097 32.052 20.9218C32.12 20.9459 32.21 20.9802 32.3203 21.0275C32.541 21.1221 32.8425 21.2682 33.213 21.4874C33.9544 21.9262 34.9666 22.6551 36.1558 23.8443C37.3449 25.0334 38.0738 26.0457 38.5126 26.7871C38.7318 27.1576 38.8778 27.4591 38.9725 27.6798C39.0198 27.7901 39.0542 27.88 39.0783 27.9481C39.0904 27.9821 39.0998 28.0106 39.1072 28.0334L39.1164 28.0634L39.1199 28.0752L39.1214 28.0802L39.122 28.0825C39.122 28.0825 39.1228 28.0847 38.0303 28.3968L39.1228 28.0847C39.2952 28.688 38.9457 29.3169 38.3425 29.4893C37.7443 29.6601 37.1209 29.3182 36.9423 28.7243L36.9367 28.708C36.9287 28.6852 36.912 28.6404 36.884 28.5749C36.8279 28.4441 36.7263 28.2302 36.5572 27.9445C36.2194 27.3738 35.6094 26.5114 34.549 25.4511C33.4887 24.3907 32.6263 23.7807 32.0556 23.4429C31.7699 23.2738 31.556 23.1722 31.4252 23.1161C31.3597 23.0881 31.3149 23.0713 31.2922 23.0633L31.2758 23.0577C30.682 22.8791 30.3399 22.2558 30.5108 21.6576Z" fill="white"/>
</g>
</g>
<defs>
<clipPath id="clip0_816_3725">
<rect width="60" height="60" fill="white"/>
</clipPath>
<clipPath id="clip1_816_3725">
<rect width="29" height="29" fill="white" transform="translate(15 16)"/>
</clipPath>
</defs>
</svg>
