<svg width="7" height="4" viewBox="0 0 7 4" fill="none" xmlns="http://www.w3.org/2000/svg">
<path d="M0.000902151 0.56763C0.000674706 0.435235 0.0412721 0.306929 0.115648 0.204985C0.157529 0.147608 0.208966 0.10018 0.267011 0.0654161C0.325056 0.030652 0.388568 0.00923542 0.453912 0.00239284C0.519255 -0.00444973 0.585145 0.00341628 0.647808 0.0255402C0.710471 0.047664 0.768675 0.0836107 0.819087 0.131322L3.49316 2.66984L6.17222 0.221984C6.22325 0.174916 6.28197 0.139767 6.345 0.118557C6.40803 0.097347 6.47412 0.0904943 6.53949 0.0983927C6.60486 0.106291 6.66821 0.128785 6.7259 0.164581C6.78359 0.200377 6.83449 0.248771 6.87566 0.306979C6.92107 0.365606 6.95533 0.434263 6.97628 0.50864C6.99723 0.583018 7.00441 0.661511 6.99739 0.739192C6.99036 0.816873 6.96927 0.892066 6.93545 0.960052C6.90162 1.02804 6.85579 1.08735 6.80082 1.13426L3.80746 3.8711C3.71819 3.95444 3.60622 4 3.49066 4C3.37511 4 3.26313 3.95444 3.17387 3.8711L0.180504 1.03793C0.12013 0.981092 0.0724034 0.908884 0.0411982 0.82717C0.00999304 0.745456 -0.00381234 0.656538 0.000902151 0.56763Z" fill="#0E0D12"/>
</svg>
