<svg width="60" height="60" viewBox="0 0 60 60" fill="none" xmlns="http://www.w3.org/2000/svg">
<g clip-path="url(#clip0_1026_403)">
<circle cx="30" cy="30" r="30" fill="#388D46"/>
<g clip-path="url(#clip1_1026_403)">
<path d="M37.1765 28.7627C33.9656 28.7627 31.3529 31.3998 31.3529 34.6406C31.3529 37.8815 33.9656 40.5185 37.1765 40.5185C40.3874 40.5185 43 37.8815 43 34.6406C43 31.3998 40.3874 28.7627 37.1765 28.7627ZM39.6455 33.6975C37.9527 36.2609 38.4327 35.5341 37.5279 36.9036C37.2029 37.3956 36.5449 37.5261 36.0594 37.1995L34.4712 36.1308C33.9848 35.8035 33.8538 35.1402 34.178 34.6486C34.5023 34.1577 35.1594 34.0254 35.6465 34.3527L36.3532 34.8283C38.0419 32.272 37.9511 32.3428 38.2353 32.1792C39.1997 31.6162 40.2653 32.758 39.6455 33.6975ZM32.4118 41.0489V46.9308C32.4118 47.7496 33.2905 48.2657 33.996 47.8586L37.1765 46.0244L40.3569 47.8586C41.0596 48.2651 41.9412 47.7519 41.9412 46.9308V41.0489C39.1202 43.1911 35.2368 43.1942 32.4118 41.0489ZM39.2941 26.9152V16.1219C39.2941 14.8421 38.2624 13.8008 36.9945 13.8008H18.2996C17.0317 13.8008 16 14.8421 16 16.1219V40.8692C16 42.149 17.0317 43.1903 18.2996 43.1903H30.2941C30.2941 38.5913 30.287 38.876 30.3107 38.6643C26.7661 32.5308 32.4102 24.9856 39.2941 26.9152ZM22.3529 19.1443H31.3529C31.9379 19.1443 32.4118 19.6226 32.4118 20.213C32.4118 20.8035 31.9379 21.2817 31.3529 21.2817H22.3529C21.7679 21.2817 21.2941 20.8035 21.2941 20.213C21.2941 19.6226 21.7679 19.1443 22.3529 19.1443ZM27.6471 29.8314H22.3529C21.7679 29.8314 21.2941 29.3532 21.2941 28.7627C21.2941 28.1723 21.7679 27.694 22.3529 27.694H27.6471C28.2321 27.694 28.7059 28.1723 28.7059 28.7627C28.7059 29.3532 28.2321 29.8314 27.6471 29.8314ZM22.3529 25.5566C21.7679 25.5566 21.2941 25.0783 21.2941 24.4879C21.2941 23.8974 21.7679 23.4192 22.3529 23.4192H31.3529C31.9379 23.4192 32.4118 23.8974 32.4118 24.4879C32.4118 25.0783 31.9379 25.5566 31.3529 25.5566H22.3529Z" fill="white"/>
</g>
</g>
<defs>
<clipPath id="clip0_1026_403">
<rect width="60" height="60" fill="white"/>
</clipPath>
<clipPath id="clip1_1026_403">
<rect width="27" height="36" fill="white" transform="translate(16 12)"/>
</clipPath>
</defs>
</svg>
