<svg width="60" height="60" viewBox="0 0 60 60" fill="none" xmlns="http://www.w3.org/2000/svg">
<g clip-path="url(#clip0_1026_401)">
<circle cx="30" cy="30" r="30" fill="#388D46"/>
<path d="M30.5591 16.382C30.2071 16.206 29.7929 16.206 29.4409 16.382L16.941 22.632C16.5175 22.8437 16.25 23.2765 16.25 23.75C16.25 24.2235 16.5175 24.6563 16.941 24.868L29.4409 31.118C29.7929 31.294 30.2071 31.294 30.5591 31.118L43.0591 24.868C43.4824 24.6563 43.7499 24.2235 43.7499 23.75C43.7499 23.2765 43.4824 22.8437 43.0591 22.632L30.5591 16.382Z" fill="white"/>
<path d="M16.3822 35.6913C16.691 35.0738 17.4418 34.8235 18.0593 35.1322L30.0002 41.1027L41.9412 35.1322C42.5587 34.8235 43.3096 35.0738 43.6182 35.6913C43.927 36.3087 43.6767 37.0595 43.0592 37.3683L30.5592 43.6183C30.2074 43.7943 29.7931 43.7943 29.4412 43.6183L16.9413 37.3683C16.3238 37.0595 16.0735 36.3087 16.3822 35.6913Z" fill="white"/>
<path d="M18.0593 28.8822C17.4418 28.5735 16.691 28.8238 16.3822 29.4413C16.0735 30.0587 16.3238 30.8095 16.9413 31.1183L29.4412 37.3683C29.7931 37.5443 30.2074 37.5443 30.5592 37.3683L43.0592 31.1183C43.6767 30.8095 43.927 30.0587 43.6182 29.4413C43.3096 28.8238 42.5587 28.5735 41.9412 28.8822L30.0002 34.8527L18.0593 28.8822Z" fill="white"/>
</g>
<defs>
<clipPath id="clip0_1026_401">
<rect width="60" height="60" fill="white"/>
</clipPath>
</defs>
</svg>
