<svg width="160" height="52" viewBox="0 0 160 52" fill="none" xmlns="http://www.w3.org/2000/svg">
<g clip-path="url(#clip0_820_838)">
<path fill-rule="evenodd" clip-rule="evenodd" d="M12.759 12.8898C2.00719 23.6667 -0.101694 25.8381 0.00367849 26.0236C0.0731052 26.1459 0.688733 26.7991 1.37197 27.4752L2.61399 28.7045L15.5872 15.7265C22.7224 8.58866 28.5604 2.70902 28.5604 2.66059C28.5604 2.52051 25.9655 0.0241653 25.7949 1.84117e-05C25.71 -0.0119252 19.8439 5.78853 12.759 12.8898ZM18.6254 18.7073C11.528 25.8068 5.72094 31.6653 5.72094 31.7262C5.72094 31.9144 8.26131 34.3598 8.45687 34.3598C8.55822 34.3598 14.4507 28.5478 21.551 21.4443L34.4609 8.52868L33.6194 7.65797C32.4441 6.44166 31.7579 5.79891 31.6349 5.79891C31.5771 5.79891 25.7228 11.6077 18.6254 18.7073ZM24.3831 24.4538L11.3885 37.4519L12.7291 38.8268C13.4665 39.583 14.1308 40.2018 14.2053 40.2018C14.3812 40.2018 40.1077 14.4747 40.1088 14.2975C40.1097 14.1739 38.7752 12.7597 37.79 11.8404L37.3778 11.4559L24.3831 24.4538ZM30.2126 30.1753C23.0944 37.2967 17.271 43.1816 17.2716 43.2529C17.2724 43.3241 17.8854 43.9947 18.634 44.7428L19.9952 46.1032L32.9698 33.1237C40.106 25.9851 45.9456 20.1102 45.947 20.0687C45.9495 19.9951 45.066 19.0843 43.7874 17.842L43.1548 17.2274L30.2126 30.1753ZM35.9897 36.0854C28.906 43.1747 23.1101 49.0255 23.1101 49.0872C23.1101 49.2761 25.7047 51.7779 25.8503 51.7293C25.9253 51.7043 31.7948 45.8763 38.8934 38.7783L51.8 25.8728L50.724 24.768C49.303 23.3089 49.179 23.1951 49.0117 23.1953C48.9334 23.1955 43.0734 28.9959 35.9897 36.0854Z" fill="#1B4D3E"/>
<g clip-path="url(#clip1_820_838)">
<path fill-rule="evenodd" clip-rule="evenodd" d="M64.9141 26.9484V35.5467H69.7195H74.5249V34.3981V33.2495L70.8953 33.1922L67.2656 33.135V30.6184V28.1019L70.6908 28.0444L74.1159 27.9869V26.8436V25.7002L70.6908 25.6428L67.2656 25.5853V23.1736V20.7619L70.793 20.7044L74.3204 20.6472V19.4986V18.3502H69.6172H64.9141V26.9484ZM108.265 26.9243V35.5467H109.39H110.514V31.7718V27.997L111.792 27.9953C113.645 27.993 115.608 27.6197 116.538 27.0927C117.021 26.8192 117.595 26.223 117.961 25.6168C118.483 24.7498 118.573 24.3935 118.568 23.2051C118.56 21.0402 117.712 19.6834 115.831 18.8242C115.311 18.5866 114.179 18.4706 111.69 18.3995L108.265 18.3018V26.9243ZM130.963 26.9484V35.5467H131.985H133.008V26.9484V18.3502H131.985H130.963V26.9484ZM136.484 26.9484V35.5467H137.506H138.529V26.9484V18.3502H137.506H136.484V26.9484ZM115.01 21.0245C116.198 21.6356 116.592 23.1243 115.92 24.4587C115.461 25.3676 114.529 25.6902 112.361 25.6902H110.514V23.1736V20.6571L112.406 20.6575C113.798 20.6577 114.485 20.7546 115.01 21.0245ZM153.796 24.0271L151.784 26.2144L152.825 26.2778L153.865 26.3413V29.7972C153.865 33.7771 154.018 34.3802 155.222 35.1478C156.202 35.7723 158.281 35.831 159.335 35.2642C159.92 34.9496 160 34.8036 160 34.0489C160 33.2549 159.965 33.2021 159.54 33.3394C159.287 33.421 158.561 33.537 157.927 33.5972C156.941 33.6903 156.711 33.6418 156.342 33.2633C155.94 32.8506 155.91 32.5983 155.91 29.5698V26.3193H157.648H159.386V25.2707V24.2222H157.658H155.931L155.869 23.031L155.808 21.8398L153.796 24.0271ZM80.455 24.1976C78.9804 24.5258 77.6451 25.622 76.8482 27.1581C76.3147 28.1866 76.3066 31.5451 76.8347 32.6333C77.3576 33.7098 78.3643 34.7042 79.4325 35.1989C80.5423 35.7129 82.7489 35.7882 84.1868 35.3613L85.1581 35.0727V34.0514C85.1581 33.4898 85.0773 33.0301 84.9786 33.0301C84.8798 33.0301 84.4688 33.1717 84.0649 33.3447C83.0648 33.7733 81.3518 33.7345 80.3333 33.2599C79.0921 32.682 78.5105 31.5999 78.5193 29.8844C78.5367 26.451 80.9367 25.2516 84.6074 26.8423C84.9408 26.9868 84.9706 26.8941 84.9142 25.8946C84.8528 24.8117 84.8332 24.7802 84.0455 24.5015C83.0065 24.1339 81.3649 23.9948 80.455 24.1976ZM91.0485 24.2933C90.038 24.5854 89.775 24.7496 88.6605 25.7841C86.501 27.7885 86.4374 31.7691 88.5305 33.9275C89.7316 35.1658 90.8763 35.6307 92.7241 35.6307C94.4651 35.6307 95.6445 35.1956 96.8539 34.1066C98.9789 32.1929 99.1155 28.3554 97.1434 25.963C95.9243 24.4839 93.0825 23.7054 91.0485 24.2933ZM122.068 24.1972C121.315 24.3992 120.195 24.9849 120.026 25.2653C119.875 25.5165 119.725 27.3679 119.856 27.3679C119.907 27.3679 120.369 27.0717 120.882 26.71C121.845 26.0303 123.143 25.7363 124.097 25.9819C124.73 26.1448 125.237 27.0856 125.237 28.0966C125.237 28.723 125.145 28.8811 124.675 29.059C121.691 30.1879 121.181 30.4422 120.483 31.1525C119.795 31.8517 119.716 32.0432 119.716 33.0085C119.716 33.9411 119.809 34.1892 120.414 34.8663C121.073 35.6037 121.18 35.6469 122.306 35.6299C123.102 35.6179 123.79 35.4596 124.372 35.1534C125.095 34.7739 125.265 34.7468 125.358 34.9968C125.764 36.0814 128.918 35.7352 128.918 34.6061C128.918 34.198 128.816 34.1388 128.151 34.1596L127.384 34.1835L127.282 30.3038C127.166 25.8885 127.013 25.3567 125.657 24.6472C124.752 24.1739 122.982 23.9518 122.068 24.1972ZM144.848 24.3006C140.426 25.523 139.935 32.9267 144.127 35.1794C145.579 35.96 148.832 35.7532 150.338 34.7843C150.702 34.5501 150.798 34.2953 150.798 33.5613V32.6342L149.827 33.0775C149.211 33.3585 148.294 33.5498 147.322 33.6001C146.006 33.6683 145.673 33.6108 144.982 33.1974C144.152 32.7015 143.584 31.8924 143.355 30.8805L143.224 30.3038H147.142H151.059L150.947 29.0336C150.727 26.5502 149.343 24.6739 147.386 24.2081C146.383 23.9695 145.995 23.9835 144.848 24.3006ZM94.5027 26.5491C95.1059 26.8486 95.5576 27.2854 95.92 27.9192C96.3774 28.7199 96.44 29.0355 96.369 30.1807C96.2318 32.388 94.919 33.6592 92.7764 33.6592C90.4913 33.6592 88.9356 31.9639 89.09 29.6418C89.2797 26.7891 91.9327 25.2732 94.5027 26.5491ZM147.713 26.4149C148.282 26.7165 148.958 27.8492 148.958 28.5005C148.958 28.7912 148.59 28.8358 146.197 28.8358C143.157 28.8358 143.119 28.8161 143.753 27.5579C144.406 26.2641 146.363 25.699 147.713 26.4149ZM125.237 31.8614C125.237 33.2943 125.194 33.4539 124.698 33.8536C123.987 34.4276 122.722 34.4354 122.17 33.8689C121.639 33.3241 121.629 32.1688 122.152 31.6835C122.506 31.3549 124.711 30.3208 125.084 30.3089C125.168 30.3061 125.237 31.0047 125.237 31.8614Z" fill="#1B4D3E"/>
</g>
</g>
<defs>
<clipPath id="clip0_820_838">
<rect width="160" height="52" fill="white"/>
</clipPath>
<clipPath id="clip1_820_838">
<rect width="95.0857" height="19.2" fill="white" transform="translate(64.9141 16.457)"/>
</clipPath>
</defs>
</svg>
