<svg width="60" height="60" viewBox="0 0 60 60" fill="none" xmlns="http://www.w3.org/2000/svg">
<g clip-path="url(#clip0_1026_402)">
<circle cx="30" cy="30" r="30" fill="#388D46"/>
<g clip-path="url(#clip1_1026_402)">
<path d="M25.7143 30.7031H18.2143C16.4391 30.7031 15 32.1803 15 34.0025V41.7009C15 43.5231 16.4391 45.0002 18.2143 45.0002H25.7143C27.4895 45.0002 28.9286 43.5231 28.9286 41.7009V34.0025C28.9286 32.1803 27.4895 30.7031 25.7143 30.7031Z" fill="white"/>
<path d="M38.0356 45.0002C41.8818 45.0002 44.9999 41.7997 44.9999 37.8517C44.9999 33.9036 41.8818 30.7031 38.0356 30.7031C34.1893 30.7031 31.0713 33.9036 31.0713 37.8517C31.0713 41.7997 34.1893 45.0002 38.0356 45.0002Z" fill="white"/>
<path d="M25.2629 28.5042H34.7365C35.3083 28.5042 35.8698 28.3476 36.363 28.0505C36.8562 27.7535 37.2633 27.3268 37.5422 26.8144C37.8212 26.302 37.9619 25.7225 37.9499 25.1357C37.9379 24.5489 37.7737 23.9759 37.474 23.476L32.7372 15.5741C32.4495 15.0942 32.0469 14.698 31.5677 14.4231C31.0885 14.1482 30.5487 14.0039 29.9997 14.0039C29.4508 14.0039 28.911 14.1482 28.4318 14.4231C27.9526 14.698 27.5499 15.0942 27.2622 15.5741L22.5254 23.476C22.2258 23.9759 22.0615 24.5489 22.0495 25.1357C22.0375 25.7225 22.1783 26.302 22.4572 26.8144C22.7362 27.3268 23.1433 27.7535 23.6365 28.0505C24.1297 28.3476 24.6911 28.5042 25.2629 28.5042Z" fill="white"/>
</g>
</g>
<defs>
<clipPath id="clip0_1026_402">
<rect width="60" height="60" fill="white"/>
</clipPath>
<clipPath id="clip1_1026_402">
<rect width="30" height="31" fill="white" transform="translate(15 14)"/>
</clipPath>
</defs>
</svg>
